<?xml version="1.0" encoding="UTF-8"?>
<svg width="46px" height="43px" viewBox="0 0 46 43" version="1.1" xmlns="http://www.w3.org/2000/svg" xmlns:xlink="http://www.w3.org/1999/xlink">
    <title>delivery-fast</title>
    <g id="Basic-Elements" stroke="none" stroke-width="1" fill="none" fill-rule="evenodd">
        <g id="Rounded-Icons" transform="translate(-2320.000000, -741.000000)" fill="#FFFFFF" fill-rule="nonzero">
            <g id="Icons-with-opacity" transform="translate(1716.000000, 291.000000)">
                <g id="delivery-fast" transform="translate(604.000000, 450.000000)">
                    <rect id="Rectangle" opacity="0.601143973" x="0" y="0" width="17.25" height="3.83333333"></rect>
                    <rect id="Rectangle" opacity="0.601143973" x="3.83333333" y="7.66666667" width="13.4166667" height="3.83333333"></rect>
                    <rect id="Rectangle" opacity="0.601143973" x="7.66666667" y="15.3333333" width="9.58333333" height="3.83333333"></rect>
                    <rect id="Rectangle" opacity="0.601888021" x="11.5" y="23" width="5.75" height="3.83333333"></rect>
                    <path d="M44.9400833,19.3679167 L38.0611667,15.9294167 L36.3591667,9.1195 C36.1464167,8.26466667 35.37975,7.66666667 34.5,7.66666667 L31.3854167,7.66666667 L21.0833333,7.66666667 C21.0833333,7.66666667 21.0833333,31.5310833 21.0833333,32.5833333 C21.0833333,33.6355833 21.1810833,34.5 21.1810833,34.5 C21.6640833,38.801 25.2808333,42.1666667 29.7083333,42.1666667 C34.1358333,42.1666667 37.7525833,38.801 38.2355833,34.5 L44.0833333,34.5 C45.1413333,34.5 46,33.6413333 46,32.5833333 L46,21.0833333 C46,20.3569167 45.5898333,19.69375 44.9400833,19.3679167 Z M29.7083333,38.3333333 C27.0671667,38.3333333 24.9166667,36.18475 24.9166667,33.5416667 C24.9166667,30.8985833 27.0671667,28.75 29.7083333,28.75 C32.3495,28.75 34.5,30.8985833 34.5,33.5416667 C34.5,36.18475 32.3495,38.3333333 29.7083333,38.3333333 Z M24.9166667,17.25 L24.9166667,11.5 L33.2426667,11.5 L34.5,17.25 L24.9166667,17.25 Z" id="Shape"></path>
                </g>
            </g>
        </g>
    </g>
</svg>