<?xml version="1.0" encoding="UTF-8"?>
<svg width="42px" height="44px" viewBox="0 0 42 44" version="1.1" xmlns="http://www.w3.org/2000/svg" xmlns:xlink="http://www.w3.org/1999/xlink">
    <title>time-alarm</title>
    <g id="Basic-Elements" stroke="none" stroke-width="1" fill="none" fill-rule="evenodd">
        <g id="Rounded-Icons" transform="translate(-2319.000000, -440.000000)" fill="#FFFFFF" fill-rule="nonzero">
            <g id="Icons-with-opacity" transform="translate(1716.000000, 291.000000)">
                <g id="time-alarm" transform="translate(603.000000, 149.000000)">
                    <path d="M18.8086957,4.70034783 C15.3814926,0.343541521 9.0713063,-0.410050841 4.7145,3.01715217 C0.357693695,6.44435519 -0.395898667,12.7545415 3.03130435,17.1113478 C5.53738466,10.3360568 11.6337901,5.54042955 18.8086957,4.70034783 L18.8086957,4.70034783 Z" id="Path" opacity="0.6"></path>
                    <path d="M38.9686957,17.1113478 C42.3958987,12.7545415 41.6423063,6.44435519 37.2855,3.01715217 C32.9286937,-0.410050841 26.6185074,0.343541521 23.1913043,4.70034783 C30.3662099,5.54042955 36.4626153,10.3360568 38.9686957,17.1113478 Z" id="Path" opacity="0.6"></path>
                    <path d="M34.3815652,34.7668696 C40.2057958,27.7073059 39.5440671,17.3375603 32.869743,11.0755718 C26.1954189,4.81358341 15.8045811,4.81358341 9.13025701,11.0755718 C2.45593289,17.3375603 1.79420418,27.7073059 7.61843478,34.7668696 L3.9753913,40.0506522 C3.58549114,40.5871271 3.51710058,41.2928217 3.79673036,41.8941824 C4.07636014,42.4955431 4.66004722,42.8980248 5.32153275,42.9456105 C5.98301828,42.9931963 6.61830436,42.6784048 6.98113043,42.1232609 L10.2744783,37.3434783 C16.5555112,42.3298213 25.4444888,42.3298213 31.7255217,37.3434783 L35.0188696,42.1196087 C35.6014207,42.9211577 36.7169135,43.1118605 37.53266,42.5493622 C38.3484064,41.9868639 38.5667083,40.8764423 38.0246087,40.047 L34.3815652,34.7668696 Z M30.1304348,25.5652174 L21,25.5652174 C20.49574,25.5652174 20.0869565,25.1564339 20.0869565,24.6521739 L20.0869565,15.5217391 C20.0869565,15.0174791 20.49574,14.6086957 21,14.6086957 C21.50426,14.6086957 21.9130435,15.0174791 21.9130435,15.5217391 L21.9130435,23.7391304 L30.1304348,23.7391304 C30.6346948,23.7391304 31.0434783,24.1479139 31.0434783,24.6521739 C31.0434783,25.1564339 30.6346948,25.5652174 30.1304348,25.5652174 Z" id="Shape"></path>
                </g>
            </g>
        </g>
    </g>
</svg>