<?xml version="1.0" encoding="UTF-8"?>
<svg width="40px" height="40px" viewBox="0 0 40 40" version="1.1" xmlns="http://www.w3.org/2000/svg" xmlns:xlink="http://www.w3.org/1999/xlink">
    <title>ungroup</title>
    <g id="Basic-Elements" stroke="none" stroke-width="1" fill="none" fill-rule="evenodd">
        <g id="Rounded-Icons" transform="translate(-2170.000000, -442.000000)" fill="#FFFFFF" fill-rule="nonzero">
            <g id="Icons-with-opacity" transform="translate(1716.000000, 291.000000)">
                <g id="ungroup" transform="translate(454.000000, 151.000000)">
                    <path d="M38.1818182,10.9090909 L32.7272727,10.9090909 L32.7272727,30.9090909 C32.7272727,31.9127273 31.9127273,32.7272727 30.9090909,32.7272727 L10.9090909,32.7272727 L10.9090909,38.1818182 C10.9090909,39.1854545 11.7236364,40 12.7272727,40 L38.1818182,40 C39.1854545,40 40,39.1854545 40,38.1818182 L40,12.7272727 C40,11.7236364 39.1854545,10.9090909 38.1818182,10.9090909 Z" id="Path" opacity="0.6"></path>
                    <path d="M27.2727273,29.0909091 L1.81818182,29.0909091 C0.812727273,29.0909091 0,28.2781818 0,27.2727273 L0,1.81818182 C0,0.814545455 0.812727273,0 1.81818182,0 L27.2727273,0 C28.2781818,0 29.0909091,0.814545455 29.0909091,1.81818182 L29.0909091,27.2727273 C29.0909091,28.2781818 28.2781818,29.0909091 27.2727273,29.0909091 Z" id="Path"></path>
                </g>
            </g>
        </g>
    </g>
</svg>