<?xml version="1.0" encoding="UTF-8"?>
<svg width="40px" height="43px" viewBox="0 0 40 43" version="1.1" xmlns="http://www.w3.org/2000/svg" xmlns:xlink="http://www.w3.org/1999/xlink">
    <title>archive-drawer</title>
    <g id="Basic-Elements" stroke="none" stroke-width="1" fill="none" fill-rule="evenodd">
        <g id="Rounded-Icons" transform="translate(-2020.000000, -291.000000)" fill="#FFFFFF" fill-rule="nonzero">
            <g id="Icons-with-opacity" transform="translate(1716.000000, 291.000000)">
                <g id="archive-drawer" transform="translate(304.000000, 0.000000)">
                    <rect id="Rectangle" opacity="0.6" x="5.33333333" y="5.33333333" width="29.3333333" height="2.66666667"></rect>
                    <rect id="Rectangle" opacity="0.6" x="10.6666667" y="0" width="18.6666667" height="2.66666667"></rect>
                    <path d="M38.6666667,10.6666667 L1.33333333,10.6666667 C0.596953667,10.6666667 0,11.2636203 0,12 L0,41.3333333 C0,42.069713 0.596953667,42.6666667 1.33333333,42.6666667 L38.6666667,42.6666667 C39.4030463,42.6666667 40,42.069713 40,41.3333333 L40,12 C40,11.2636203 39.4030463,10.6666667 38.6666667,10.6666667 Z M29.3333333,25.3333333 C29.3333333,26.069713 28.7363797,26.6666667 28,26.6666667 L12,26.6666667 C11.2636203,26.6666667 10.6666667,26.069713 10.6666667,25.3333333 L10.6666667,20 L13.3333333,20 L13.3333333,24 L26.6666667,24 L26.6666667,20 L29.3333333,20 L29.3333333,25.3333333 Z" id="Shape"></path>
                </g>
            </g>
        </g>
    </g>
</svg>