<?xml version="1.0" encoding="UTF-8"?>
<svg width="44px" height="43px" viewBox="0 0 44 43" version="1.1" xmlns="http://www.w3.org/2000/svg" xmlns:xlink="http://www.w3.org/1999/xlink">
    <title>megaphone</title>
    <g id="Basic-Elements" stroke="none" stroke-width="1" fill="none" fill-rule="evenodd">
        <g id="Rounded-Icons" transform="translate(-2168.000000, -591.000000)" fill="#FFFFFF" fill-rule="nonzero">
            <g id="Icons-with-opacity" transform="translate(1716.000000, 291.000000)">
                <g id="megaphone" transform="translate(452.000000, 300.000000)">
                    <path d="M35.7958333,0.273166667 C35.2558424,-0.0603712374 34.5817509,-0.0908856664 34.0138333,0.1925 L19.734,7.33333333 L9.16666667,7.33333333 C4.10405646,7.33333333 0,11.4373898 0,16.5 C0,21.5626102 4.10405646,25.6666667 9.16666667,25.6666667 L19.734,25.6666667 L34.0138333,32.8166667 C34.5837412,33.1014624 35.2606401,33.0699651 35.8016385,32.7334768 C36.3426368,32.3969885 36.6701539,31.8037627 36.6666942,31.1666667 L36.6666942,1.83333333 C36.6666942,1.19744715 36.3370375,0.607006911 35.7958333,0.273166667 Z" id="Path"></path>
                    <path d="M38.5,11 L38.5,22 C41.5375661,22 44,19.5375661 44,16.5 C44,13.4624339 41.5375661,11 38.5,11 Z" id="Path" opacity="0.601050967"></path>
                    <path d="M18.5936667,29.3333333 L10.6571667,29.3333333 L14.9361667,39.864 C15.7423448,41.6604248 17.8234451,42.4993948 19.6501416,41.764381 C21.4768381,41.0293672 22.3968823,38.982817 21.7341667,37.1286667 L18.5936667,29.3333333 Z" id="Path" opacity="0.601050967"></path>
                </g>
            </g>
        </g>
    </g>
</svg>